<?xml version="1.0" standalone="no"?><!DOCTYPE svg PUBLIC "-//W3C//DTD SVG 1.1//EN" "http://www.w3.org/Graphics/SVG/1.1/DTD/svg11.dtd"><svg t="1509612823011" class="icon" style="" viewBox="0 0 1024 1024" version="1.1" xmlns="http://www.w3.org/2000/svg" p-id="4028" xmlns:xlink="http://www.w3.org/1999/xlink" width="128" height="128"><defs><style type="text/css"></style></defs><path d="M502.79 485.013a41.383 41.383 0 0 0-1.502 1.586c-0.494 0.438-0.979 0.889-1.453 1.361-13.057 13.056-13.057 34.22 0 47.274L811.153 846.541c13.056 13.056 34.22099999 13.056 47.277 0 13.05-13.056 13.05-34.214 0-47.27l-287.686-287.673 284.733-284.719c14.681-14.687 16.004-37.168 2.954-50.224-13.057-13.056-35.54599999-11.731-50.226 2.955L502.79 485.013z m-337.216 2.947c-13.057 13.056-13.057 34.22 0 47.27399999L476.892 846.541c13.057 13.056 34.223 13.056 47.27700001 0 13.05-13.056 13.05-34.214-1e-8-47.27l-287.685-287.673 284.73-284.719c14.68200001-14.687 16.005-37.168 2.955-50.224-13.055-13.056-35.545-11.731-50.225 2.95500001l-305.415 305.40199999a42.094 42.094 0 0 0-1.502 1.586c-0.494 0.438-0.98 0.889-1.453 1.362z" fill="#0F95AC" p-id="4029"></path></svg>