<?xml version="1.0" standalone="no"?><!DOCTYPE svg PUBLIC "-//W3C//DTD SVG 1.1//EN" "http://www.w3.org/Graphics/SVG/1.1/DTD/svg11.dtd"><svg t="1505113706046" class="icon" style="" viewBox="0 0 1024 1024" version="1.1" xmlns="http://www.w3.org/2000/svg" p-id="9326" xmlns:xlink="http://www.w3.org/1999/xlink" width="128" height="128"><defs><style type="text/css"></style></defs><path d="M641.706667 71.68H213.333333c-47.786667 0-85.333333 39.253333-85.333333 85.333333v708.266667c0 47.786667 39.253333 85.333333 85.333333 85.333333h595.626667c47.786667 0 85.333333-39.253333 85.333333-85.333333V325.973333L641.706667 71.68z m23.893333 134.826667l100.693333 100.693333h-97.28c-1.706667 0-3.413333-1.706667-3.413333-3.413333v-97.28z m145.066667 665.6h-597.333334c-3.413333 0-6.826667-3.413333-6.826666-6.826667V157.013333c0-3.413333 3.413333-6.826667 6.826666-6.826666h372.053334v153.6c0 46.08 37.546667 83.626667 83.626666 83.626666h148.48v477.866667c-1.706667 5.12-3.413333 6.826667-6.826666 6.826667z" p-id="9327" fill="#ffffff"></path><path d="M706.56 423.253333H317.44c-22.186667 0-39.253333 17.066667-39.253333 39.253334s17.066667 39.253333 39.253333 39.253333h389.12c22.186667 0 39.253333-17.066667 39.253333-39.253333s-17.066667-39.253333-39.253333-39.253334zM706.56 634.88H317.44c-22.186667 0-39.253333 17.066667-39.253333 39.253333s17.066667 39.253333 39.253333 39.253334h389.12c22.186667 0 39.253333-17.066667 39.253333-39.253334s-17.066667-39.253333-39.253333-39.253333z" p-id="9328" fill="#ffffff"></path></svg>